<mxfile host="app.diagrams.net" modified="2023-06-27T09:33:14.187Z" agent="Mozilla/5.0 (Windows NT 10.0; Win64; x64) AppleWebKit/537.36 (KHTML, like Gecko) Chrome/114.0.0.0 Safari/537.36" etag="sWfzHF5TrV-nUEXfwXGG" version="21.5.1" type="github">
  <diagram name="第 1 页" id="fMipuzNQtu9X9_ya9-IH">
    <mxGraphModel dx="1562" dy="837" grid="1" gridSize="10" guides="1" tooltips="1" connect="1" arrows="1" fold="1" page="1" pageScale="1" pageWidth="1200" pageHeight="1600" math="0" shadow="0">
      <root>
        <mxCell id="0" />
        <mxCell id="1" parent="0" />
        <mxCell id="LV20fUpdMBN0D84zTJ2B-1" value="&lt;font style=&quot;font-size: 18px;&quot;&gt;生产管理系统&lt;/font&gt;" style="rounded=0;whiteSpace=wrap;html=1;" vertex="1" parent="1">
          <mxGeometry x="130" y="170" width="130" height="60" as="geometry" />
        </mxCell>
        <mxCell id="LV20fUpdMBN0D84zTJ2B-2" value="设备管理" style="rounded=0;whiteSpace=wrap;html=1;" vertex="1" parent="1">
          <mxGeometry x="380" y="130" width="120" height="60" as="geometry" />
        </mxCell>
        <mxCell id="LV20fUpdMBN0D84zTJ2B-5" value="" style="shape=curlyBracket;whiteSpace=wrap;html=1;rounded=1;labelPosition=left;verticalLabelPosition=middle;align=right;verticalAlign=middle;" vertex="1" parent="1">
          <mxGeometry x="520" y="90" width="20" height="120" as="geometry" />
        </mxCell>
        <mxCell id="LV20fUpdMBN0D84zTJ2B-8" value="试剂卡管理" style="rounded=0;whiteSpace=wrap;html=1;" vertex="1" parent="1">
          <mxGeometry x="380" y="280" width="120" height="60" as="geometry" />
        </mxCell>
        <mxCell id="LV20fUpdMBN0D84zTJ2B-9" value="" style="shape=curlyBracket;whiteSpace=wrap;html=1;rounded=1;labelPosition=left;verticalLabelPosition=middle;align=right;verticalAlign=middle;" vertex="1" parent="1">
          <mxGeometry x="520" y="250" width="20" height="120" as="geometry" />
        </mxCell>
        <mxCell id="LV20fUpdMBN0D84zTJ2B-11" value="试剂卡信息" style="rounded=0;whiteSpace=wrap;html=1;" vertex="1" parent="1">
          <mxGeometry x="560" y="250" width="100" height="40" as="geometry" />
        </mxCell>
        <mxCell id="LV20fUpdMBN0D84zTJ2B-12" value="修改试剂卡" style="rounded=0;whiteSpace=wrap;html=1;" vertex="1" parent="1">
          <mxGeometry x="560" y="300" width="100" height="40" as="geometry" />
        </mxCell>
        <mxCell id="LV20fUpdMBN0D84zTJ2B-13" value="新增试剂卡" style="rounded=0;whiteSpace=wrap;html=1;" vertex="1" parent="1">
          <mxGeometry x="560" y="350" width="100" height="40" as="geometry" />
        </mxCell>
      </root>
    </mxGraphModel>
  </diagram>
</mxfile>
